<mxfile host="app.diagrams.net" agent="Mozilla/5.0 (X11; Linux x86_64; rv:141.0) Gecko/20100101 Firefox/141.0" version="28.0.7">
  <diagram name="Seite-1" id="IE9IpigzB-XSyIbfN3Uv">
    <mxGraphModel dx="984" dy="520" grid="1" gridSize="10" guides="1" tooltips="1" connect="1" arrows="1" fold="1" page="1" pageScale="1" pageWidth="827" pageHeight="1169" math="0" shadow="0">
      <root>
        <mxCell id="0" />
        <mxCell id="1" parent="0" />
        <mxCell id="DrZL57TYYDfvQZiiDiuW-19" style="edgeStyle=orthogonalEdgeStyle;rounded=0;orthogonalLoop=1;jettySize=auto;html=1;entryX=0.5;entryY=0;entryDx=0;entryDy=0;" edge="1" parent="1" source="DrZL57TYYDfvQZiiDiuW-6" target="DrZL57TYYDfvQZiiDiuW-18">
          <mxGeometry relative="1" as="geometry" />
        </mxCell>
        <mxCell id="DrZL57TYYDfvQZiiDiuW-33" value="Timer" style="edgeLabel;html=1;align=center;verticalAlign=middle;resizable=0;points=[];" vertex="1" connectable="0" parent="DrZL57TYYDfvQZiiDiuW-19">
          <mxGeometry x="-0.624" y="1" relative="1" as="geometry">
            <mxPoint x="-1" y="29" as="offset" />
          </mxGeometry>
        </mxCell>
        <mxCell id="DrZL57TYYDfvQZiiDiuW-6" value="esp32" style="rounded=0;whiteSpace=wrap;html=1;shadow=1;glass=0;" vertex="1" parent="1">
          <mxGeometry x="120" y="390" width="120" height="60" as="geometry" />
        </mxCell>
        <mxCell id="DrZL57TYYDfvQZiiDiuW-66" style="edgeStyle=orthogonalEdgeStyle;rounded=0;orthogonalLoop=1;jettySize=auto;html=1;endArrow=none;endFill=0;" edge="1" parent="1" source="DrZL57TYYDfvQZiiDiuW-8">
          <mxGeometry relative="1" as="geometry">
            <mxPoint x="180" y="390" as="targetPoint" />
            <Array as="points">
              <mxPoint x="205" y="370" />
              <mxPoint x="180" y="370" />
            </Array>
          </mxGeometry>
        </mxCell>
        <mxCell id="DrZL57TYYDfvQZiiDiuW-68" value="I2C" style="edgeLabel;html=1;align=center;verticalAlign=middle;resizable=0;points=[];" vertex="1" connectable="0" parent="DrZL57TYYDfvQZiiDiuW-66">
          <mxGeometry x="-0.5916" relative="1" as="geometry">
            <mxPoint y="11" as="offset" />
          </mxGeometry>
        </mxCell>
        <mxCell id="DrZL57TYYDfvQZiiDiuW-8" value="TSL2561 Sensor" style="rounded=1;whiteSpace=wrap;html=1;" vertex="1" parent="1">
          <mxGeometry x="180" y="290" width="50" height="30" as="geometry" />
        </mxCell>
        <mxCell id="DrZL57TYYDfvQZiiDiuW-64" style="edgeStyle=orthogonalEdgeStyle;rounded=0;orthogonalLoop=1;jettySize=auto;html=1;entryX=0.5;entryY=0;entryDx=0;entryDy=0;" edge="1" parent="1" source="DrZL57TYYDfvQZiiDiuW-9" target="DrZL57TYYDfvQZiiDiuW-6">
          <mxGeometry relative="1" as="geometry">
            <Array as="points">
              <mxPoint x="100" y="370" />
              <mxPoint x="180" y="370" />
            </Array>
          </mxGeometry>
        </mxCell>
        <mxCell id="DrZL57TYYDfvQZiiDiuW-71" value="Analog" style="edgeLabel;html=1;align=center;verticalAlign=middle;resizable=0;points=[];" vertex="1" connectable="0" parent="DrZL57TYYDfvQZiiDiuW-64">
          <mxGeometry x="-0.7893" relative="1" as="geometry">
            <mxPoint y="14" as="offset" />
          </mxGeometry>
        </mxCell>
        <mxCell id="DrZL57TYYDfvQZiiDiuW-9" value="DHT22 Sensor" style="rounded=1;whiteSpace=wrap;html=1;glass=0;" vertex="1" parent="1">
          <mxGeometry x="80" y="290" width="40" height="30" as="geometry" />
        </mxCell>
        <mxCell id="DrZL57TYYDfvQZiiDiuW-65" style="edgeStyle=orthogonalEdgeStyle;rounded=0;orthogonalLoop=1;jettySize=auto;html=1;entryX=0.5;entryY=0;entryDx=0;entryDy=0;endArrow=none;endFill=0;" edge="1" parent="1" source="DrZL57TYYDfvQZiiDiuW-10" target="DrZL57TYYDfvQZiiDiuW-6">
          <mxGeometry relative="1" as="geometry">
            <Array as="points">
              <mxPoint x="150" y="370" />
              <mxPoint x="180" y="370" />
            </Array>
          </mxGeometry>
        </mxCell>
        <mxCell id="DrZL57TYYDfvQZiiDiuW-70" value="Analog" style="edgeLabel;html=1;align=center;verticalAlign=middle;resizable=0;points=[];" vertex="1" connectable="0" parent="DrZL57TYYDfvQZiiDiuW-65">
          <mxGeometry x="-0.732" relative="1" as="geometry">
            <mxPoint y="16" as="offset" />
          </mxGeometry>
        </mxCell>
        <mxCell id="DrZL57TYYDfvQZiiDiuW-10" value="MQ7 Sensor" style="rounded=1;whiteSpace=wrap;html=1;" vertex="1" parent="1">
          <mxGeometry x="130" y="290" width="40" height="30" as="geometry" />
        </mxCell>
        <mxCell id="DrZL57TYYDfvQZiiDiuW-67" style="edgeStyle=orthogonalEdgeStyle;rounded=0;orthogonalLoop=1;jettySize=auto;html=1;entryX=0.5;entryY=0;entryDx=0;entryDy=0;endArrow=none;endFill=0;" edge="1" parent="1" source="DrZL57TYYDfvQZiiDiuW-11" target="DrZL57TYYDfvQZiiDiuW-6">
          <mxGeometry relative="1" as="geometry">
            <Array as="points">
              <mxPoint x="260" y="370" />
              <mxPoint x="180" y="370" />
            </Array>
          </mxGeometry>
        </mxCell>
        <mxCell id="DrZL57TYYDfvQZiiDiuW-69" value="Analog" style="edgeLabel;html=1;align=center;verticalAlign=middle;resizable=0;points=[];" vertex="1" connectable="0" parent="DrZL57TYYDfvQZiiDiuW-67">
          <mxGeometry x="-0.7467" relative="1" as="geometry">
            <mxPoint y="11" as="offset" />
          </mxGeometry>
        </mxCell>
        <mxCell id="DrZL57TYYDfvQZiiDiuW-11" value="MQ135 Sensor" style="rounded=1;whiteSpace=wrap;html=1;" vertex="1" parent="1">
          <mxGeometry x="240" y="290" width="40" height="30" as="geometry" />
        </mxCell>
        <mxCell id="DrZL57TYYDfvQZiiDiuW-21" style="edgeStyle=orthogonalEdgeStyle;rounded=0;orthogonalLoop=1;jettySize=auto;html=1;entryX=0.25;entryY=1;entryDx=0;entryDy=0;exitX=0.875;exitY=0.5;exitDx=0;exitDy=0;exitPerimeter=0;endArrow=none;endFill=0;startArrow=classic;startFill=1;" edge="1" parent="1" source="DrZL57TYYDfvQZiiDiuW-17" target="DrZL57TYYDfvQZiiDiuW-6">
          <mxGeometry relative="1" as="geometry">
            <Array as="points">
              <mxPoint x="130" y="505" />
              <mxPoint x="130" y="450" />
            </Array>
          </mxGeometry>
        </mxCell>
        <mxCell id="DrZL57TYYDfvQZiiDiuW-25" value="Trigger Reading" style="edgeLabel;html=1;align=center;verticalAlign=middle;resizable=0;points=[];" vertex="1" connectable="0" parent="DrZL57TYYDfvQZiiDiuW-21">
          <mxGeometry x="0.5017" y="-1" relative="1" as="geometry">
            <mxPoint x="-91" y="1" as="offset" />
          </mxGeometry>
        </mxCell>
        <mxCell id="DrZL57TYYDfvQZiiDiuW-17" value="Web-Server" style="ellipse;shape=cloud;whiteSpace=wrap;html=1;" vertex="1" parent="1">
          <mxGeometry y="470" width="100" height="70" as="geometry" />
        </mxCell>
        <mxCell id="DrZL57TYYDfvQZiiDiuW-18" value="LCD Display" style="rounded=1;whiteSpace=wrap;html=1;" vertex="1" parent="1">
          <mxGeometry x="160" y="520" width="40" height="30" as="geometry" />
        </mxCell>
        <mxCell id="DrZL57TYYDfvQZiiDiuW-20" style="edgeStyle=orthogonalEdgeStyle;rounded=0;orthogonalLoop=1;jettySize=auto;html=1;entryX=0.4;entryY=0.1;entryDx=0;entryDy=0;entryPerimeter=0;startArrow=classic;startFill=1;endArrow=none;endFill=0;exitX=0;exitY=0.75;exitDx=0;exitDy=0;" edge="1" parent="1" source="DrZL57TYYDfvQZiiDiuW-6" target="DrZL57TYYDfvQZiiDiuW-17">
          <mxGeometry relative="1" as="geometry">
            <Array as="points">
              <mxPoint x="40" y="435" />
            </Array>
          </mxGeometry>
        </mxCell>
        <mxCell id="DrZL57TYYDfvQZiiDiuW-24" value="HW-Info" style="edgeLabel;html=1;align=center;verticalAlign=middle;resizable=0;points=[];" vertex="1" connectable="0" parent="DrZL57TYYDfvQZiiDiuW-20">
          <mxGeometry x="-0.3026" y="1" relative="1" as="geometry">
            <mxPoint x="52" y="34" as="offset" />
          </mxGeometry>
        </mxCell>
        <mxCell id="DrZL57TYYDfvQZiiDiuW-43" style="edgeStyle=orthogonalEdgeStyle;rounded=0;orthogonalLoop=1;jettySize=auto;html=1;entryX=0;entryY=0.5;entryDx=0;entryDy=0;" edge="1" parent="1" source="DrZL57TYYDfvQZiiDiuW-29" target="DrZL57TYYDfvQZiiDiuW-42">
          <mxGeometry relative="1" as="geometry" />
        </mxCell>
        <mxCell id="DrZL57TYYDfvQZiiDiuW-44" value="Data&lt;br&gt;Display" style="edgeLabel;html=1;align=center;verticalAlign=middle;resizable=0;points=[];" vertex="1" connectable="0" parent="DrZL57TYYDfvQZiiDiuW-43">
          <mxGeometry x="-0.2" relative="1" as="geometry">
            <mxPoint as="offset" />
          </mxGeometry>
        </mxCell>
        <mxCell id="DrZL57TYYDfvQZiiDiuW-29" value="Raspberry Pi 3" style="rounded=0;whiteSpace=wrap;html=1;shadow=1;glass=0;" vertex="1" parent="1">
          <mxGeometry x="350" y="320" width="66" height="60" as="geometry" />
        </mxCell>
        <mxCell id="DrZL57TYYDfvQZiiDiuW-37" style="edgeStyle=orthogonalEdgeStyle;rounded=0;orthogonalLoop=1;jettySize=auto;html=1;entryX=0.16;entryY=0.55;entryDx=0;entryDy=0;entryPerimeter=0;dashed=1;dashPattern=1 1;" edge="1" parent="1" source="DrZL57TYYDfvQZiiDiuW-6" target="DrZL57TYYDfvQZiiDiuW-46">
          <mxGeometry relative="1" as="geometry">
            <mxPoint x="326.4200000000001" y="479.5" as="targetPoint" />
            <Array as="points">
              <mxPoint x="300" y="420" />
              <mxPoint x="300" y="604" />
            </Array>
          </mxGeometry>
        </mxCell>
        <mxCell id="DrZL57TYYDfvQZiiDiuW-38" value="Sensor-Data" style="edgeLabel;html=1;align=center;verticalAlign=middle;resizable=0;points=[];" vertex="1" connectable="0" parent="DrZL57TYYDfvQZiiDiuW-37">
          <mxGeometry x="-0.0237" y="1" relative="1" as="geometry">
            <mxPoint as="offset" />
          </mxGeometry>
        </mxCell>
        <mxCell id="DrZL57TYYDfvQZiiDiuW-42" value="LED Matrix" style="rounded=1;whiteSpace=wrap;html=1;shadow=1;glass=0;" vertex="1" parent="1">
          <mxGeometry x="510" y="330" width="50" height="40" as="geometry" />
        </mxCell>
        <mxCell id="DrZL57TYYDfvQZiiDiuW-48" style="edgeStyle=orthogonalEdgeStyle;rounded=0;orthogonalLoop=1;jettySize=auto;html=1;entryX=1;entryY=0.5;entryDx=0;entryDy=0;exitX=1;exitY=0.5;exitDx=0;exitDy=0;" edge="1" parent="1" source="DrZL57TYYDfvQZiiDiuW-45" target="DrZL57TYYDfvQZiiDiuW-47">
          <mxGeometry relative="1" as="geometry">
            <Array as="points">
              <mxPoint x="590" y="630" />
              <mxPoint x="590" y="490" />
            </Array>
          </mxGeometry>
        </mxCell>
        <mxCell id="DrZL57TYYDfvQZiiDiuW-49" value="Hosting" style="edgeLabel;html=1;align=center;verticalAlign=middle;resizable=0;points=[];" vertex="1" connectable="0" parent="DrZL57TYYDfvQZiiDiuW-48">
          <mxGeometry x="0.0826" relative="1" as="geometry">
            <mxPoint as="offset" />
          </mxGeometry>
        </mxCell>
        <mxCell id="DrZL57TYYDfvQZiiDiuW-45" value="Raspberry Pi 3" style="rounded=0;whiteSpace=wrap;html=1;shadow=1;glass=0;" vertex="1" parent="1">
          <mxGeometry x="502" y="600" width="66" height="60" as="geometry" />
        </mxCell>
        <mxCell id="DrZL57TYYDfvQZiiDiuW-52" style="edgeStyle=orthogonalEdgeStyle;rounded=0;orthogonalLoop=1;jettySize=auto;html=1;exitX=0.875;exitY=0.5;exitDx=0;exitDy=0;exitPerimeter=0;entryX=0.5;entryY=1;entryDx=0;entryDy=0;startArrow=none;startFill=0;" edge="1" parent="1" source="DrZL57TYYDfvQZiiDiuW-46" target="DrZL57TYYDfvQZiiDiuW-47">
          <mxGeometry relative="1" as="geometry">
            <Array as="points">
              <mxPoint x="470" y="600" />
              <mxPoint x="470" y="550" />
              <mxPoint x="525" y="550" />
            </Array>
          </mxGeometry>
        </mxCell>
        <mxCell id="DrZL57TYYDfvQZiiDiuW-53" value="Storage" style="edgeLabel;html=1;align=center;verticalAlign=middle;resizable=0;points=[];" vertex="1" connectable="0" parent="DrZL57TYYDfvQZiiDiuW-52">
          <mxGeometry x="0.5741" y="1" relative="1" as="geometry">
            <mxPoint x="-54" y="25" as="offset" />
          </mxGeometry>
        </mxCell>
        <mxCell id="DrZL57TYYDfvQZiiDiuW-55" style="edgeStyle=orthogonalEdgeStyle;rounded=0;orthogonalLoop=1;jettySize=auto;html=1;entryX=0.5;entryY=1;entryDx=0;entryDy=0;dashed=1;dashPattern=1 1;startArrow=classic;startFill=1;endArrow=none;endFill=0;exitX=0.496;exitY=0.104;exitDx=0;exitDy=0;exitPerimeter=0;" edge="1" parent="1" source="DrZL57TYYDfvQZiiDiuW-46">
          <mxGeometry relative="1" as="geometry">
            <mxPoint x="410" y="530" as="sourcePoint" />
            <mxPoint x="383" y="380" as="targetPoint" />
            <Array as="points">
              <mxPoint x="382" y="530" />
              <mxPoint x="383" y="530" />
            </Array>
          </mxGeometry>
        </mxCell>
        <mxCell id="DrZL57TYYDfvQZiiDiuW-56" value="REST API Calls" style="edgeLabel;html=1;align=center;verticalAlign=middle;resizable=0;points=[];" vertex="1" connectable="0" parent="DrZL57TYYDfvQZiiDiuW-55">
          <mxGeometry x="0.2406" y="-1" relative="1" as="geometry">
            <mxPoint y="34" as="offset" />
          </mxGeometry>
        </mxCell>
        <mxCell id="DrZL57TYYDfvQZiiDiuW-46" value="&lt;font style=&quot;font-size: 10px;&quot;&gt;Spring Application&lt;/font&gt;" style="ellipse;shape=cloud;whiteSpace=wrap;html=1;" vertex="1" parent="1">
          <mxGeometry x="319.5" y="560" width="127" height="80" as="geometry" />
        </mxCell>
        <mxCell id="DrZL57TYYDfvQZiiDiuW-47" value="Postgres" style="shape=datastore;whiteSpace=wrap;html=1;" vertex="1" parent="1">
          <mxGeometry x="500" y="475" width="50" height="30" as="geometry" />
        </mxCell>
        <mxCell id="DrZL57TYYDfvQZiiDiuW-50" style="edgeStyle=orthogonalEdgeStyle;rounded=0;orthogonalLoop=1;jettySize=auto;html=1;entryX=0.55;entryY=0.95;entryDx=0;entryDy=0;entryPerimeter=0;exitX=0.5;exitY=1;exitDx=0;exitDy=0;" edge="1" parent="1" source="DrZL57TYYDfvQZiiDiuW-45" target="DrZL57TYYDfvQZiiDiuW-46">
          <mxGeometry relative="1" as="geometry">
            <Array as="points">
              <mxPoint x="535" y="670" />
              <mxPoint x="389" y="670" />
            </Array>
          </mxGeometry>
        </mxCell>
        <mxCell id="DrZL57TYYDfvQZiiDiuW-51" value="Hosting" style="edgeLabel;html=1;align=center;verticalAlign=middle;resizable=0;points=[];" vertex="1" connectable="0" parent="DrZL57TYYDfvQZiiDiuW-50">
          <mxGeometry x="-0.593" y="-1" relative="1" as="geometry">
            <mxPoint x="-47" as="offset" />
          </mxGeometry>
        </mxCell>
        <mxCell id="DrZL57TYYDfvQZiiDiuW-57" style="edgeStyle=orthogonalEdgeStyle;rounded=0;orthogonalLoop=1;jettySize=auto;html=1;entryX=1;entryY=0.5;entryDx=0;entryDy=0;curved=1;" edge="1" parent="1" source="DrZL57TYYDfvQZiiDiuW-42" target="DrZL57TYYDfvQZiiDiuW-42">
          <mxGeometry relative="1" as="geometry" />
        </mxCell>
        <mxCell id="DrZL57TYYDfvQZiiDiuW-58" value="Brightness Control" style="edgeLabel;html=1;align=center;verticalAlign=middle;resizable=0;points=[];" vertex="1" connectable="0" parent="DrZL57TYYDfvQZiiDiuW-57">
          <mxGeometry x="-0.1264" y="-1" relative="1" as="geometry">
            <mxPoint x="-10" y="-11" as="offset" />
          </mxGeometry>
        </mxCell>
        <mxCell id="DrZL57TYYDfvQZiiDiuW-60" style="edgeStyle=orthogonalEdgeStyle;rounded=0;orthogonalLoop=1;jettySize=auto;html=1;entryX=0;entryY=0.25;entryDx=0;entryDy=0;" edge="1" parent="1" source="DrZL57TYYDfvQZiiDiuW-59" target="DrZL57TYYDfvQZiiDiuW-6">
          <mxGeometry relative="1" as="geometry" />
        </mxCell>
        <mxCell id="DrZL57TYYDfvQZiiDiuW-61" value="Trigger&lt;br&gt;Reading" style="edgeLabel;html=1;align=center;verticalAlign=middle;resizable=0;points=[];" vertex="1" connectable="0" parent="DrZL57TYYDfvQZiiDiuW-60">
          <mxGeometry x="0.12" y="-1" relative="1" as="geometry">
            <mxPoint as="offset" />
          </mxGeometry>
        </mxCell>
        <mxCell id="DrZL57TYYDfvQZiiDiuW-59" value="Touch&lt;br&gt;Button" style="rounded=1;whiteSpace=wrap;html=1;glass=0;" vertex="1" parent="1">
          <mxGeometry x="10" y="390" width="40" height="30" as="geometry" />
        </mxCell>
        <mxCell id="DrZL57TYYDfvQZiiDiuW-72" value="&lt;font style=&quot;font-size: 11px;&quot;&gt;OpenWeatherMap&lt;/font&gt;" style="ellipse;shape=cloud;whiteSpace=wrap;html=1;" vertex="1" parent="1">
          <mxGeometry x="313.5" y="180" width="127" height="80" as="geometry" />
        </mxCell>
        <mxCell id="DrZL57TYYDfvQZiiDiuW-73" style="edgeStyle=orthogonalEdgeStyle;rounded=0;orthogonalLoop=1;jettySize=auto;html=1;dashed=1;dashPattern=1 1;entryX=0.55;entryY=0.95;entryDx=0;entryDy=0;entryPerimeter=0;" edge="1" parent="1" source="DrZL57TYYDfvQZiiDiuW-29" target="DrZL57TYYDfvQZiiDiuW-72">
          <mxGeometry relative="1" as="geometry">
            <mxPoint x="360" y="280" as="targetPoint" />
            <Array as="points" />
          </mxGeometry>
        </mxCell>
        <mxCell id="DrZL57TYYDfvQZiiDiuW-74" value="REST API Calls" style="edgeLabel;html=1;align=center;verticalAlign=middle;resizable=0;points=[];" vertex="1" connectable="0" parent="DrZL57TYYDfvQZiiDiuW-73">
          <mxGeometry x="-0.4166" y="1" relative="1" as="geometry">
            <mxPoint as="offset" />
          </mxGeometry>
        </mxCell>
      </root>
    </mxGraphModel>
  </diagram>
</mxfile>
